<?xml version="1.0" encoding="utf-8"?>
<!-- Generator: Adobe Illustrator 26.5.0, SVG Export Plug-In . SVG Version: 6.00 Build 0)  -->
<svg version="1.2" baseProfile="tiny" xmlns="http://www.w3.org/2000/svg" xmlns:xlink="http://www.w3.org/1999/xlink" x="0px"
	 y="0px" viewBox="0 0 66.493 55.735" overflow="visible" xml:space="preserve">
<g id="grid" display="none">
</g>
<g id="stk">
	<polygon fill="none" stroke="#9C9B9B" stroke-width="2" stroke-miterlimit="10" points="65.43,54.735 0.878,54.735 0.878,1 
		53.98,1 65.43,13.883 	"/>
	<line fill="none" stroke="#9C9B9B" stroke-width="2" stroke-miterlimit="10" x1="22.108" y1="5.061" x2="22.108" y2="50.603"/>
	
		<rect x="1.95" y="9.679" transform="matrix(-1.836970e-16 1 -1 -1.836970e-16 27.068 3.9526)" fill="none" stroke="#9C9B9B" stroke-width="2" stroke-miterlimit="10" width="19.216" height="11.664"/>
	
		<rect x="1.823" y="34.07" transform="matrix(-1.836970e-16 1 -1 -1.836970e-16 51.4597 28.3444)" fill="none" stroke="#9C9B9B" stroke-width="2" stroke-miterlimit="10" width="19.469" height="11.664"/>
	<line fill="none" stroke="#9C9B9B" stroke-width="2" stroke-miterlimit="10" x1="43.647" y1="5.061" x2="43.647" y2="50.603"/>
	
		<rect x="23.489" y="9.679" transform="matrix(-1.836970e-16 1 -1 -1.836970e-16 48.6073 -17.5867)" fill="none" stroke="#9C9B9B" stroke-width="2" stroke-miterlimit="10" width="19.216" height="11.664"/>
	
		<rect x="23.363" y="34.07" transform="matrix(-1.836970e-16 1 -1 -1.836970e-16 72.999 6.805)" fill="none" stroke="#9C9B9B" stroke-width="2" stroke-miterlimit="10" width="19.469" height="11.664"/>
	
		<rect x="49.33" y="13.98" transform="matrix(-1.836970e-16 1 -1 -1.836970e-16 74.4483 -34.8244)" fill="none" stroke="#9C9B9B" stroke-width="2" stroke-miterlimit="10" width="10.613" height="11.664"/>
	
		<rect x="44.902" y="34.07" transform="matrix(-1.836970e-16 1 -1 -1.836970e-16 94.5384 -14.7343)" fill="none" stroke="#9C9B9B" stroke-width="2" stroke-miterlimit="10" width="19.469" height="11.664"/>
	<g>
		<line fill="none" stroke="#9C9B9B" stroke-width="2" stroke-miterlimit="10" x1="54.871" y1="10.089" x2="47.917" y2="10.089"/>
	</g>
	<g>
		<g>
			<g>
				<g>
					<rect x="4.968" y="20.296" fill="none" stroke="#9C9B9B" stroke-miterlimit="10" width="0.349" height="0.553"/>
				</g>
			</g>
			
				<rect x="4.591" y="19.409" transform="matrix(-1 -1.224647e-16 1.224647e-16 -1 10.2835 41.1745)" fill="none" stroke="#9C9B9B" stroke-width="2" stroke-miterlimit="10" width="1.101" height="2.357"/>
		</g>
		<g>
			<g>
				<g>
					<rect x="4.968" y="11.005" fill="none" stroke="#9C9B9B" stroke-miterlimit="10" width="0.349" height="0.553"/>
				</g>
			</g>
			
				<rect x="4.591" y="10.117" transform="matrix(-1 -1.224647e-16 1.224647e-16 -1 10.2835 22.5916)" fill="none" stroke="#9C9B9B" stroke-width="2" stroke-miterlimit="10" width="1.101" height="2.357"/>
		</g>
	</g>
	<g>
		<g>
			<g>
				<g>
					<rect x="26.482" y="20.296" fill="none" stroke="#9C9B9B" stroke-miterlimit="10" width="0.349" height="0.553"/>
				</g>
			</g>
			
				<rect x="26.105" y="19.409" transform="matrix(-1 -1.224647e-16 1.224647e-16 -1 53.3112 41.1745)" fill="none" stroke="#9C9B9B" stroke-width="2" stroke-miterlimit="10" width="1.101" height="2.357"/>
		</g>
		<g>
			<g>
				<g>
					<rect x="26.482" y="11.005" fill="none" stroke="#9C9B9B" stroke-miterlimit="10" width="0.349" height="0.553"/>
				</g>
			</g>
			
				<rect x="26.105" y="10.117" transform="matrix(-1 -1.224647e-16 1.224647e-16 -1 53.3112 22.5916)" fill="none" stroke="#9C9B9B" stroke-width="2" stroke-miterlimit="10" width="1.101" height="2.357"/>
		</g>
	</g>
	<g>
		<g>
			<g>
				<g>
					<rect x="4.968" y="44.475" fill="none" stroke="#9C9B9B" stroke-miterlimit="10" width="0.349" height="0.553"/>
				</g>
			</g>
			
				<rect x="4.591" y="43.587" transform="matrix(-1 -1.224647e-16 1.224647e-16 -1 10.2835 89.5319)" fill="none" stroke="#9C9B9B" stroke-width="2" stroke-miterlimit="10" width="1.101" height="2.357"/>
		</g>
		<g>
			<g>
				<g>
					<rect x="4.968" y="35.184" fill="none" stroke="#9C9B9B" stroke-miterlimit="10" width="0.349" height="0.553"/>
				</g>
			</g>
			
				<rect x="4.591" y="34.296" transform="matrix(-1 -1.224647e-16 1.224647e-16 -1 10.2835 70.949)" fill="none" stroke="#9C9B9B" stroke-width="2" stroke-miterlimit="10" width="1.101" height="2.357"/>
		</g>
	</g>
	<g>
		<g>
			<g>
				<g>
					<rect x="26.508" y="44.475" fill="none" stroke="#9C9B9B" stroke-miterlimit="10" width="0.349" height="0.553"/>
				</g>
			</g>
			
				<rect x="26.131" y="43.587" transform="matrix(-1 -1.224647e-16 1.224647e-16 -1 53.3621 89.5319)" fill="none" stroke="#9C9B9B" stroke-width="2" stroke-miterlimit="10" width="1.101" height="2.357"/>
		</g>
		<g>
			<g>
				<g>
					<rect x="26.508" y="35.184" fill="none" stroke="#9C9B9B" stroke-miterlimit="10" width="0.349" height="0.553"/>
				</g>
			</g>
			
				<rect x="26.131" y="34.296" transform="matrix(-1 -1.224647e-16 1.224647e-16 -1 53.3621 70.949)" fill="none" stroke="#9C9B9B" stroke-width="2" stroke-miterlimit="10" width="1.101" height="2.357"/>
		</g>
	</g>
	<g>
		<g>
			<g>
				<g>
					<rect x="48.047" y="44.475" fill="none" stroke="#9C9B9B" stroke-miterlimit="10" width="0.349" height="0.553"/>
				</g>
			</g>
			
				<rect x="47.67" y="43.587" transform="matrix(-1 -1.224647e-16 1.224647e-16 -1 96.4406 89.5319)" fill="none" stroke="#9C9B9B" stroke-width="2" stroke-miterlimit="10" width="1.101" height="2.357"/>
		</g>
		<g>
			<g>
				<g>
					<rect x="48.047" y="35.184" fill="none" stroke="#9C9B9B" stroke-miterlimit="10" width="0.349" height="0.553"/>
				</g>
			</g>
			
				<rect x="47.67" y="34.296" transform="matrix(-1 -1.224647e-16 1.224647e-16 -1 96.4406 70.949)" fill="none" stroke="#9C9B9B" stroke-width="2" stroke-miterlimit="10" width="1.101" height="2.357"/>
		</g>
	</g>
	
		<rect x="-115.07" y="-7.329" fill="none" stroke="#FFFFFF" stroke-width="0.5" stroke-miterlimit="10" width="530.325" height="69.711"/>
</g>
</svg>
