<?xml version="1.0" encoding="utf-8"?>
<!-- Generator: Adobe Illustrator 26.5.0, SVG Export Plug-In . SVG Version: 6.00 Build 0)  -->
<svg version="1.2" baseProfile="tiny" xmlns="http://www.w3.org/2000/svg" xmlns:xlink="http://www.w3.org/1999/xlink" x="0px"
	 y="0px" viewBox="0 0 22.734 55.735" overflow="visible" xml:space="preserve">
<g id="grid" display="none">
</g>
<g id="stk">
	
		<rect x="-114.949" y="-7.367" fill="none" stroke="#FFFFFF" stroke-width="0.5" stroke-miterlimit="10" width="530.325" height="69.711"/>
	<path fill="none" stroke="#9B9B9B" stroke-width="2" stroke-miterlimit="10" d="M21.741,5H0.878v37.883
		c6.448,4.279,13.289,5.233,20.863,0V5z"/>
	<path fill="#9B9B9B" stroke="#9B9B9B" stroke-width="2" stroke-miterlimit="10" d="M17.7,36.501H4.918v3.483
		c3.95,2.621,8.142,3.206,12.782,0V36.501z"/>
	<line fill="none" stroke="#9B9B9B" stroke-width="3" stroke-miterlimit="10" x1="19.066" y1="2.678" x2="3.184" y2="2.678"/>
	<polygon fill="none" stroke="#9B9B9B" stroke-width="2" stroke-miterlimit="10" points="4.245,52.986 4.245,45.699 8.107,46.919 
		8.107,52.986 	"/>
	<polygon fill="none" stroke="#9B9B9B" stroke-width="2" stroke-miterlimit="10" points="18.642,52.986 18.642,45.699 14.78,46.919 
		14.78,52.986 	"/>
	<g>
		<g>
			<rect x="4.705" y="8.732" fill="#B8B8B8" width="13.517" height="22.678"/>
		</g>
	</g>
	<g>
		<ellipse fill="#808080" stroke="#808080" stroke-miterlimit="10" cx="13.095" cy="12.562" rx="2.64" ry="1.788"/>
	</g>
	<g>
		<circle fill="none" stroke="#9B9B9B" stroke-width="2" stroke-miterlimit="10" cx="7.945" cy="19.684" r="0.639"/>
	</g>
	<g>
		<circle fill="none" stroke="#9B9B9B" stroke-width="2" stroke-miterlimit="10" cx="7.945" cy="23.907" r="0.639"/>
	</g>
	<g>
		<circle fill="none" stroke="#9B9B9B" stroke-width="2" stroke-miterlimit="10" cx="7.945" cy="28.131" r="0.639"/>
	</g>
</g>
</svg>
